<?xml version="1.0" encoding="UTF-8" standalone="no"?>
<svg
   version="1.1"
   width="40mm"
   height="20mm"
   viewBox="0 0 39.999998 20"
   id="svg1267"
   sodipodi:docname="krtkus_logo.svg"
   inkscape:version="1.4.3 (0d15f75, 2025-12-25)"
   inkscape:export-filename="logoe.svg"
   inkscape:export-xdpi="96"
   inkscape:export-ydpi="96"
   xml:space="preserve"
   xmlns:inkscape="http://www.inkscape.org/namespaces/inkscape"
   xmlns:sodipodi="http://sodipodi.sourceforge.net/DTD/sodipodi-0.dtd"
   xmlns="http://www.w3.org/2000/svg"
   xmlns:svg="http://www.w3.org/2000/svg"
   xmlns:rdf="http://www.w3.org/1999/02/22-rdf-syntax-ns#"
   xmlns:cc="http://creativecommons.org/ns#"><sodipodi:namedview
     id="namedview1267"
     pagecolor="#ffffff"
     bordercolor="#000000"
     borderopacity="0.25"
     inkscape:showpageshadow="2"
     inkscape:pageopacity="0.0"
     inkscape:pagecheckerboard="0"
     inkscape:deskcolor="#d1d1d1"
     inkscape:document-units="mm"
     inkscape:zoom="64"
     inkscape:cx="28.375"
     inkscape:cy="8.7890625"
     inkscape:window-width="2560"
     inkscape:window-height="1369"
     inkscape:window-x="1912"
     inkscape:window-y="-8"
     inkscape:window-maximized="1"
     inkscape:current-layer="svg1267"
     showguides="true"
     showgrid="false" /><defs
     id="defs1267" /><metadata
     id="metadata1267"><rdf:RDF><cc:Work
         rdf:about="" /></rdf:RDF></metadata><path
     d="m 18.49304,14.58375 q -0.496711,0 -0.874889,-0.180622 -0.372533,-0.180622 -0.581377,-0.496711 -0.208844,-0.321733 -0.208844,-0.733777 0,-0.174978 0.0508,-0.344311 0.0508,-0.174978 0.129822,-0.327377 0.07902,-0.1524 0.158044,-0.270934 0.07902,-0.124177 0.129822,-0.197555 l 0.999066,-1.343377 q 0.02258,-0.02822 0.06773,-0.06773 0.0508,-0.04516 0.135467,-0.04516 h 0.728133 q 0.0508,0 0.08467,0.03951 0.03387,0.03387 0.03387,0.08467 0,0.02258 -0.0056,0.04516 -0.0056,0.01693 -0.01693,0.02822 l -0.767644,1.044221 q 0.03951,-0.01129 0.08467,-0.01129 0.0508,-0.0056 0.09031,-0.0056 0.259644,0.0056 0.508,0.107244 0.248355,0.1016 0.451555,0.282222 0.2032,0.174978 0.321733,0.423333 0.124178,0.242711 0.124178,0.541867 0,0.389466 -0.2032,0.716844 -0.2032,0.321733 -0.570089,0.519288 -0.366888,0.191911 -0.869243,0.191911 z m -0.0056,-0.80151 q 0.169333,0 0.310444,-0.06773 0.146756,-0.07338 0.237067,-0.208844 0.09031,-0.135467 0.09031,-0.338666 0,-0.197556 -0.09031,-0.333022 -0.09031,-0.135467 -0.237067,-0.2032 -0.141111,-0.07338 -0.310444,-0.07338 -0.169333,0 -0.316089,0.07338 -0.146755,0.06773 -0.237066,0.2032 -0.08467,0.135466 -0.08467,0.333022 0,0.203199 0.08467,0.338666 0.09031,0.135466 0.237066,0.208844 0.146756,0.06773 0.316089,0.06773 z m 2.190044,0.745066 q -0.06209,0 -0.1016,-0.03951 -0.03951,-0.03951 -0.03951,-0.1016 v -0.389467 q 0,-0.03951 0.02258,-0.118533 0.02258,-0.08467 0.118533,-0.158044 l 0.615244,-0.603955 q 0.440266,-0.338667 0.722488,-0.575733 0.287867,-0.237067 0.423333,-0.417689 0.141111,-0.186266 0.141111,-0.3556 0,-0.197555 -0.1016,-0.327377 -0.1016,-0.129822 -0.349955,-0.129822 -0.169333,0 -0.282222,0.07338 -0.107244,0.07338 -0.169333,0.186267 -0.05645,0.112889 -0.08467,0.237066 -0.01693,0.07338 -0.07338,0.1016 -0.0508,0.02822 -0.112888,0.02822 h -0.682978 q -0.05644,0 -0.09031,-0.03387 -0.03387,-0.03387 -0.03387,-0.08467 0.0056,-0.270933 0.112888,-0.502355 0.112889,-0.237066 0.310445,-0.417688 0.197555,-0.186267 0.474133,-0.287867 0.282222,-0.1016 0.626533,-0.1016 0.479777,0 0.812799,0.158045 0.333022,0.152399 0.508,0.423333 0.174977,0.270933 0.174977,0.632177 0,0.282222 -0.124178,0.519288 -0.118533,0.237067 -0.338666,0.4572 -0.214489,0.214489 -0.519288,0.445911 l -0.547511,0.54751 h 1.467554 q 0.06209,0 0.1016,0.03951 0.04516,0.03951 0.04516,0.101599 v 0.553156 q 0,0.06209 -0.04516,0.1016 -0.03951,0.03951 -0.1016,0.03951 z"
     id="text1"
     style="display:inline;stroke-width:0.264583"
     inkscape:label="Rubik Bold 16px"
     aria-label="62" /><path
     style="display:inline;stroke-width:0.264583"
     d="m 17.294181,8.6986589 q -0.05644,0 -0.1016,-0.039511 -0.03951,-0.039511 -0.03951,-0.1016 V 4.8886618 q 0,-0.062089 0.03951,-0.1015999 0.04516,-0.039511 0.1016,-0.039511 h 0.694266 q 0.06209,0 0.1016,0.039511 0.03951,0.039511 0.03951,0.1015999 V 6.147372 l 1.0668,-1.2925768 q 0.02258,-0.033867 0.07338,-0.067733 0.05645,-0.039511 0.146756,-0.039511 h 0.790221 q 0.04516,0 0.07902,0.039511 0.03951,0.033867 0.03951,0.079022 0,0.039511 -0.02258,0.067733 l -1.371599,1.704621 1.478843,1.8739541 q 0.02258,0.022578 0.02258,0.067733 0,0.045155 -0.03951,0.084667 -0.03387,0.033867 -0.07902,0.033867 h -0.818444 q -0.1016,0 -0.158044,-0.045155 -0.0508,-0.045155 -0.06773,-0.067733 L 18.129558,7.1803045 v 1.3772434 q 0,0.062089 -0.03951,0.1016 -0.03951,0.039511 -0.1016,0.039511 z m 3.663241,0 q -0.05644,0 -0.1016,-0.039511 -0.03951,-0.039511 -0.03951,-0.1016 V 5.9046611 q 0,-0.056444 0.03951,-0.095956 0.04516,-0.045155 0.1016,-0.045155 h 0.632177 q 0.06209,0 0.1016,0.045155 0.04516,0.039511 0.04516,0.095956 v 0.2257776 q 0.146755,-0.1749777 0.355599,-0.2709332 0.214489,-0.095955 0.479778,-0.095955 h 0.248355 q 0.05645,0 0.09596,0.039511 0.04516,0.039511 0.04516,0.1016 v 0.564444 q 0,0.062089 -0.04516,0.1015999 -0.03951,0.039511 -0.09596,0.039511 h -0.536222 q -0.237066,0 -0.366888,0.1298221 -0.129822,0.1298221 -0.129822,0.3668886 v 1.4506211 q 0,0.062089 -0.04516,0.1016 -0.03951,0.039511 -0.1016,0.039511 z m 3.894665,0 q -0.361244,0 -0.620889,-0.1128888 Q 23.971554,8.4672369 23.830443,8.224526 23.694977,7.9761706 23.694977,7.5923487 V 6.4916828 H 23.25471 q -0.06209,0 -0.1016,-0.039511 -0.03951,-0.045156 -0.03951,-0.1016 V 5.9046611 q 0,-0.062089 0.03951,-0.1016 0.03951,-0.039511 0.1016,-0.039511 h 0.440267 V 4.8322174 q 0,-0.062089 0.03951,-0.1015999 0.04516,-0.039511 0.1016,-0.039511 h 0.637821 q 0.05645,0 0.09596,0.039511 0.04516,0.039511 0.04516,0.1015999 v 0.9313327 h 0.705555 q 0.06209,0 0.1016,0.039511 0.03951,0.039511 0.03951,0.1016 v 0.4459107 q 0,0.056444 -0.03951,0.1016 -0.03951,0.039511 -0.1016,0.039511 H 24.61502 v 1.0216437 q 0,0.1975554 0.07338,0.3104442 0.07338,0.1128888 0.248355,0.1128888 h 0.434622 q 0.05645,0 0.09596,0.045155 0.04515,0.039511 0.04515,0.095955 v 0.4797774 q 0,0.062089 -0.04515,0.1016 -0.03951,0.039511 -0.09596,0.039511 z m 1.275647,0 q -0.06209,0 -0.1016,-0.039511 -0.03951,-0.039511 -0.03951,-0.1016 V 4.8322174 q 0,-0.062089 0.03951,-0.1015999 0.03951,-0.039511 0.1016,-0.039511 h 0.632178 q 0.06209,0 0.101599,0.039511 0.03951,0.039511 0.03951,0.1015999 v 1.8965319 l 0.80151,-0.8692438 q 0.03387,-0.039511 0.07338,-0.067733 0.03951,-0.028222 0.118533,-0.028222 h 0.728133 q 0.05644,0 0.09031,0.039511 0.03951,0.033867 0.03951,0.084667 0,0.022578 -0.01129,0.0508 -0.01129,0.028222 -0.03387,0.045155 l -1.032932,1.0950214 1.174043,1.4054656 q 0.03951,0.045155 0.03951,0.090311 0,0.0508 -0.03951,0.090311 -0.03387,0.033867 -0.08467,0.033867 h -0.756355 q -0.08467,0 -0.124178,-0.028222 -0.03387,-0.033867 -0.07338,-0.067733 L 26.901023,7.5246154 v 1.0329325 q 0,0.062089 -0.03951,0.1016 -0.03951,0.039511 -0.101599,0.039511 z m 4.202743,0.056444 q -0.327378,0 -0.581378,-0.1467554 Q 29.500744,8.4615925 29.359633,8.1793704 29.218522,7.891504 29.218522,7.4794599 V 5.9046611 q 0,-0.062089 0.03951,-0.1016 0.04515,-0.039511 0.1016,-0.039511 h 0.688622 q 0.06209,0 0.101599,0.039511 0.04516,0.039511 0.04516,0.1016 v 1.5409321 q 0,0.5700885 0.502355,0.5700885 0.237067,0 0.378178,-0.1467555 0.141111,-0.1523998 0.141111,-0.423333 V 5.9046611 q 0,-0.062089 0.03951,-0.1016 0.03951,-0.039511 0.1016,-0.039511 h 0.688621 q 0.05645,0 0.09596,0.039511 0.04516,0.039511 0.04516,0.1016 v 2.6528868 q 0,0.062089 -0.04516,0.1016 -0.03951,0.039511 -0.09596,0.039511 h -0.637821 q -0.06209,0 -0.1016,-0.039511 -0.03951,-0.039511 -0.03951,-0.1016 V 8.3374148 Q 31.120698,8.5462591 30.883632,8.6535034 30.65221,8.7551033 30.330477,8.7551029 Z m 3.72533,0 q -0.361244,0 -0.620888,-0.079022 -0.254,-0.084667 -0.417689,-0.2031999 -0.158044,-0.1185332 -0.237066,-0.2427109 -0.07338,-0.1298221 -0.07902,-0.2201332 -0.0056,-0.062089 0.03387,-0.1015999 0.04516,-0.039511 0.09595,-0.039511 h 0.626533 q 0.01693,0 0.02822,0.00564 0.01693,0.00564 0.03387,0.022578 0.07338,0.045156 0.146756,0.1072444 0.07338,0.056444 0.169333,0.1015999 0.1016,0.039511 0.242711,0.039511 0.163689,0 0.276577,-0.062089 0.112889,-0.067733 0.112889,-0.191911 0,-0.090311 -0.05644,-0.1523999 -0.0508,-0.062089 -0.208845,-0.1128888 Q 34.050163,7.5697709 33.734074,7.5076821 33.440563,7.4399488 33.22043,7.3327044 33.000297,7.2198156 32.881763,7.044838 32.768875,6.8642159 32.768875,6.6158605 q 0,-0.2257776 0.141111,-0.4346219 0.146755,-0.2088443 0.423333,-0.3386664 0.282222,-0.1354665 0.69991,-0.1354665 0.316089,0 0.5588,0.079022 0.242711,0.073378 0.406399,0.191911 0.163689,0.1128888 0.248356,0.2427109 0.08467,0.1241777 0.09031,0.2201332 0.0056,0.062089 -0.03387,0.1015999 -0.03951,0.039511 -0.09031,0.039511 h -0.575733 q -0.02258,0 -0.04516,-0.00564 -0.02258,-0.011289 -0.03387,-0.022578 -0.07338,-0.033867 -0.141111,-0.090311 -0.06773,-0.062089 -0.158044,-0.1015999 -0.09031,-0.045155 -0.231422,-0.045155 -0.158045,0 -0.248356,0.067733 -0.08467,0.067733 -0.08467,0.1806221 0,0.073378 0.04516,0.1354665 0.0508,0.062089 0.2032,0.1185333 0.1524,0.0508 0.468489,0.1128888 0.389466,0.062089 0.615244,0.2031998 0.231422,0.1354666 0.327377,0.3217331 0.1016,0.1806221 0.1016,0.3781775 0,0.2709331 -0.163689,0.4797774 -0.158044,0.2088443 -0.474133,0.3273775 -0.310444,0.1128888 -0.761999,0.1128888 z"
     id="text1-0"
     inkscape:label="Rubik Bold 16px"
     aria-label="Krtkus" /><path
     id="path1"
     style="display:inline;fill:#000000;fill-opacity:1;fill-rule:evenodd;stroke:none;stroke-width:0.0997237"
     d="M 8.26199,1.57867 C 8.18131,1.63482 7.82349,1.93071 7.69444,2.45087 7.56621,2.96774 7.66741,3.38917 7.71558,3.52101 7.48801,3.6296 7.27556,3.84376 7.17484,4.0803 7.04061,4.39553 7.01373,5.01396 6.99906,5.44426 6.97903,6.03194 6.93271,6.54349 6.89648,6.94638 6.88923,7.02696 6.87663,7.09563 6.84493,7.1469 6.73741,7.32081 6.35423,7.63379 5.94439,7.9294 5.41224,8.31321 4.92415,8.82211 4.55826,9.30367 4.06553,9.95217 3.91656,10.4211 3.79999,10.7996 c -0.10451,0.1756 -0.17542,0.3168 -0.22372,0.5345 -0.0614,0.2769 -0.08469,0.4975 -0.06083,0.8336 0.01633,0.2299 0.06331,0.5102 0.20413,0.6928 0.10261,0.133 0.22983,0.1412 0.28558,0.1469 0.02184,0.0549 0.06527,0.155 0.11443,0.2371 0.00858,0.3145 -0.03349,0.5903 0.1165,1.1083 0.13772,0.4756 0.31751,0.7152 0.57579,1.0052 -0.41385,0.0564 -0.70213,0.2897 -0.97786,0.6387 -0.30276,0.3831 -0.47525,0.7839 -0.47888,1.1294 -7.6e-4,0.0719 0.0238,0.1216 0.08144,0.1428 0.43738,0.161 0.99231,0.2112 1.61758,0.1721 0.83908,-0.0524 1.25571,-0.2474 1.60933,-0.4902 0.36409,-0.2499 0.50804,-0.5572 0.50156,-0.7887 0.43809,0.0085 0.94981,-0.0023 1.3119,-0.0525 0.24166,0.1086 0.94651,0.2456 1.78636,0.2243 0.7958,-0.0202 1.4767,-0.1191 1.6138,-0.145 0.115,-0.0216 0.1679,-0.0878 0.1603,-0.2046 -0.0191,-0.2903 -0.1075,-0.5431 -0.2529,-0.7429 -0.1455,-0.1999 -0.3479,-0.3468 -0.5951,-0.4252 0.2249,-0.2794 0.4156,-0.5926 0.5628,-0.912 0.1472,-0.3194 0.2507,-0.6449 0.3259,-0.9324 0.1676,0.1154 0.2742,0.148 0.5289,-0.0984 0.1518,0.1017 0.3371,-0.0185 0.5,-0.3124 0.1115,-0.2011 0.1937,-0.4643 0.1541,-0.8619 -0.0396,-0.3976 -0.1844,-0.595 -0.2995,-0.7866 C 12.7657,10.317 12.2758,9.60057 11.986,9.19398 11.7286,8.8328 10.9342,7.85179 10.7394,7.64949 10.7058,7.25798 10.6291,6.44679 10.2858,6.05408 10.4371,5.87856 10.461651,5.5709434 10.427999,5.3545714 10.408491,5.229137 10.336789,5.2075999 10.276184,5.260414 10.231521,5.2993353 10.209048,5.3195023 10.1507,5.35766 10.1349,5.08761 10.0958,4.67403 9.93318,4.31691 9.8064,4.03849 9.63238,3.80665 9.36563,3.61895 9.09895,3.43129 8.81873,3.38335 8.66406,3.36121 8.66765,3.23715 8.6923163,3.117308 8.7363048,3.0021965 8.7844393,2.8762354 8.88321,2.75267 8.90015,2.72613 8.91721,2.69942 8.9232207,2.6733569 8.8939619,2.6498462 8.8694529,2.630152 8.8364,2.64587 8.81819,2.66943 8.80419,2.68755 8.719749,2.7816938 8.647639,2.9650838 8.585129,3.1240438 8.57411,3.23452 8.56663,3.3478 8.4357,3.34371 8.33409,3.3492 8.22848,3.36327 8.20325,3.28259 8.1701494,3.0041563 8.240306,2.75199 8.309876,2.501932 8.4912393,2.298176 8.5469893,2.230466 8.5679293,2.205036 8.5665163,2.177969 8.5408093,2.158809 8.5172593,2.141279 8.4938193,2.149719 8.4665723,2.176856 8.404888,2.238284 8.2253859,2.4616652 8.1470079,2.7267252 8.0702403,2.986339 8.1147,3.29201 8.13106,3.37977 7.97469,3.41457 7.89122,3.4429 7.81094,3.47461 7.77245,3.39743 7.65677,2.94291 7.78723,2.47252 7.92093,1.99045 8.23796,1.71521 8.31714,1.64929 8.3413742,1.6291148 8.35157,1.60927 8.33312,1.58125 8.31167,1.54876 8.277,1.56825 8.26199,1.57868 Z m 1.36293,3.3831 C 9.65194,4.96317 9.68346,4.96712 9.7074,4.9726 9.70281,5.05746 9.69518,5.1468 9.70585,5.23137 9.71204,5.28043 9.73966,5.40816 9.82183,5.40715 9.91766,5.40597 9.92928,5.30167 9.93214,5.21281 9.93417,5.14969 9.93174,5.10931 9.91977,5.02415 c 0.0357,0.01306 0.08033,0.03772 0.10933,0.06186 0.018,0.11697 0.017,0.21203 0.0144,0.32681 C 9.9688,5.46547 9.83686,5.5408 9.75998,5.53035 9.67551,5.51887 9.63852,5.40357 9.62543,5.29477 9.61248,5.18707 9.61136,5.07606 9.62492,4.96177 Z M 8.82335,5.00147 C 8.9474,5.18147 8.95672,5.41422 8.94036,5.5685 8.93479,5.62105 8.89481,5.64178 8.84654,5.62004 8.7205,5.56329 8.68279,5.55689 8.54756,5.52829 8.50598,5.51949 8.46554,5.49007 8.44292,5.45406 8.38945,5.36891 8.35641,5.26583 8.36199,5.17518 8.38552,5.15165 8.42026,5.1292 8.45735,5.11075 8.47271,5.20898 8.48647,5.30862 8.53828,5.38962 8.5831,5.4597 8.66677,5.48493 8.73159,5.44993 8.80289,5.41144 8.79921,5.32269 8.79035,5.26694 8.77517,5.17131 8.75111,5.12051 8.70324,5.02827 8.73724,5.0186 8.77887,5.00855 8.82335,5.00147 Z M 8.39484,5.59376 C 8.7835478,5.6356008 8.92865,5.74873 9.12129,5.94377 9.16857,5.99163 9.21424,6.01013 9.27697,6.01026 9.41,6.01053 9.4612,6.01158 9.7476,5.94377 9.75267,6.05594 9.81045,6.15977 9.89915,6.23604 9.68876,6.33801 9.51296,6.34677 9.34244,6.32367 9.16542,6.2997 8.93444,6.22063 8.76561,6.11542 8.8408,6.00582 8.84377,5.96246 8.85634,5.90562 8.8689,5.84878 8.79672,5.82786 8.77747,5.88191 8.75583,5.94264 8.71583,6.07635 8.58829,6.15563 8.50119,6.20749 8.32466,6.21277 8.22539,6.19996 8.16654,6.19237 8.15536,6.27967 8.20838,6.28862 8.30762,6.30538 8.43982,6.30297 8.57849,6.26955 8.70731,6.5658 8.90939,6.98286 9.02078,7.13195 9.13447,7.28412 9.21094,7.33548 9.2981,7.33453 9.39556,7.33347 9.4668,7.23783 9.50069,7.14947 9.56536,6.98084 9.62802,6.73085 9.61306,6.44275 9.74988,6.40884 9.93624,6.35336 10.0512,6.28295 c 0.0077,0.66835 0.0145,1.451 0.1768,2.3908 0.1963,1.13615 0.3648,1.73105 0.7016,2.81145 0.1709,0.5482 0.18,1.2598 0.0825,1.5861 -0.1281,0.4283 -0.429,1.192 -1.59749,1.3702 C 8.45975,14.5871 7.68359,14.0468 7.5063,13.4755 7.21658,12.5418 7.58868,11.859 7.70321,11.1223 7.81775,10.3855 7.90527,9.43207 7.77795,8.60725 7.62245,7.59975 7.35338,7.14621 7.51506,6.3577 7.54225,6.22506 7.66663,5.90898 7.84651,5.74531 7.99316,5.61187 8.152794,5.567706 8.39484,5.59376 Z M 9.42285,6.95565 C 9.44809,6.95071 9.46835,6.96098 9.4677,6.99174 9.46635,7.055 9.42357,7.15019 9.36409,7.2103 9.33444,7.24026 9.26979,7.2554 9.21357,7.21082 9.14135,7.15356 9.06968,7.05717 9.0682,7.00153 9.06757,6.97789 9.08286,6.96812 9.11098,6.96493 9.15426,6.96003 9.22216,6.99207 9.28728,6.98968 9.3523,6.98729 9.39054,6.96198 9.42285,6.95565 Z M 9.69348,7.7196 C 9.63937,7.79811 9.55995,7.87139 9.45481,7.93146 9.34959,7.99157 9.17616,8.01563 9.03933,7.95362 8.90242,7.89158 8.81903,7.81471 8.76458,7.76135 8.72897,7.72645 8.6749,7.77206 8.70582,7.80517 8.77173,7.87567 8.87358,7.9641 9.00531,8.02373 9.13705,8.08337 9.33493,8.09378 9.49089,8.00363 9.64686,7.91348 9.70243,7.8249 9.7507,7.75001 9.7766,7.70979 9.72369,7.67575 9.69348,7.7196 Z M 4.2232,10.7991 c 0.11918,-0.0024 0.31855,0.0341 0.48145,0.1046 0.27483,0.119 0.26103,0.1761 0.32837,0.4536 0.02869,0.1183 0.15507,0.1674 0.2531,0.1825 0.09803,0.0152 0.38256,-0.0908 0.4763,-0.1232 0.09374,-0.0324 0.14994,-0.0029 0.17681,0.0438 0.02688,0.0467 0.04907,0.2512 -0.14021,0.4418 -0.18927,0.1906 -0.33775,0.1697 -0.64899,0.1943 -0.01256,0.5235 0.19898,0.7463 0.26857,0.9253 0.06962,0.1791 -0.02405,0.3893 -0.183,0.432 C 5.07663,13.4965 4.96225,13.4526 4.84023,13.261 4.7234,13.0776 4.6981,12.7139 4.69228,12.3744 c -9.6e-4,-0.056 -0.0916,-0.057 -0.09124,-10e-4 0.003,0.4668 0.02993,0.6769 0.12269,0.9041 C 4.661,13.3472 4.59096,13.3816 4.47269,13.376 4.38344,13.3718 4.26554,13.3366 4.17938,13.1687 4.07197,12.9595 4.02876,12.7333 4.0768,12.3002 4.08192,12.254 4.00216,12.2281 3.98607,12.2862 3.9483,12.4228 3.95225,12.7397 3.98865,12.9136 3.92274,12.9163 3.85768,12.9021 3.77885,12.7899 3.68864,12.6614 3.65165,12.4884 3.62833,12.2801 c -0.03592,-0.321 -0.01,-0.5488 0.01495,-0.7526 0.0286,-0.2337 0.12387,-0.5359 0.233,-0.631 0.09449,-0.0824 0.24387,-0.0954 0.34692,-0.0974 z m 8.2018,0.0464 c 0.5004,-0.0081 0.6061,0.3404 0.6727,0.5459 0.0666,0.2055 0.1366,0.6189 -0.0196,1.0165 -0.1294,0.3296 -0.2994,0.435 -0.4062,0.3851 0.1877,-0.2474 0.23922,-0.392498 0.2609,-0.5934 0.0068,-0.0632 -0.0844,-0.0703 -0.0922,-0.0109 -0.0412,0.3151 -0.2632,0.5929 -0.3914,0.6996 -0.1028,0.0856 -0.172,0.1113 -0.2989,0.0201 0.1645,-0.1959 0.290573,-0.473306 0.3221,-0.6211 0.01107,-0.05191 -0.0718,-0.0721 -0.0876,-0.0176 -0.0735,0.2532 -0.2639,0.5425 -0.3516,0.6263 -0.0876,0.0839 -0.1914,0.1069 -0.2778,0.0872 -0.0864,-0.0197 -0.142,-0.0869 -0.0557,-0.2774 0.0864,-0.1904 0.3523,-0.5174 0.3114,-0.8778 -0.0033,-0.0294 -0.0462,-0.0847 -0.1279,-0.0774 -0.0816,0.0074 -0.2376,0.0826 -0.4443,-0.0448 -0.1834,-0.1131 -0.2413,-0.3272 -0.2119,-0.4753 0.0295,-0.1481 0.1426,-0.1589 0.3037,-0.05 0.1707,0.1155 0.2846,0.0641 0.3268,0.0413 -0.0102,-0.0414 -0.01778,-0.05709 0.0134,-0.1253 0.07772,-0.169992 0.4388,-0.2491 0.5541,-0.251 z m -1.2995,4.0614 c 0.1988,0.0442 0.431088,0.194809 0.5773,0.3934 0.153588,0.208609 0.211198,0.4293 0.2212,0.6706 0.0036,0.0868 -0.0384,0.1105 -0.1243,0.1237 -0.2725,0.0418 -0.754,0.116 -1.5413,0.1304 -0.78717,0.0145 -1.23223,-0.0598 -1.60001,-0.1598 0.47459,-0.0851 0.94341,-0.1816 1.48251,-0.4417 0.5633,-0.2719 0.919,-0.6636 0.9846,-0.7166 z m -4.85275,0.6114 c 0.31621,0.084 0.6385544,0.267489 0.74487,0.4969 C 7.1660044,16.335389 6.88418,16.6091 6.6707,16.7931 6.38626,17.0383 5.85657,17.237 5.32375,17.3075 4.75293,17.3832 4.04512,17.3417 3.54431,17.1962 3.46164,17.1722 3.45549,17.17 3.45771,17.0838 3.46566,16.7755 3.7217,16.272 3.93401,16.0261 4.16667,15.7566 4.38075,15.5407 4.73816,15.4678 5.14188,15.3855 5.74071,15.377 6.27275,15.5183 Z"
     inkscape:label="Krtkus"
     transform="matrix(1.0024899,0,0,1.0024899,-0.03396722,-0.03489523)"
     sodipodi:nodetypes="cscsssssscsssccscsssssccsssscsccsscsccsscsscsssssccsssssccsccccccssscccssccssssccsssccsssccscssssscsssccsssssssssssssssssssssssssssssssssscssssscsssscsssssssscssscsssssssssscsscsssscscsssssssss" /></svg>
