<?xml version="1.0" encoding="UTF-8" standalone="no"?>
<svg
   version="1.1"
   width="40mm"
   height="20mm"
   viewBox="0 0 39.999998 20"
   id="svg1267"
   sodipodi:docname="krtkus_logo.svg"
   inkscape:version="1.4 (86a8ad7, 2024-10-11)"
   inkscape:export-filename="logoe.svg"
   inkscape:export-xdpi="96"
   inkscape:export-ydpi="96"
   xml:space="preserve"
   xmlns:inkscape="http://www.inkscape.org/namespaces/inkscape"
   xmlns:sodipodi="http://sodipodi.sourceforge.net/DTD/sodipodi-0.dtd"
   xmlns="http://www.w3.org/2000/svg"
   xmlns:svg="http://www.w3.org/2000/svg"
   xmlns:rdf="http://www.w3.org/1999/02/22-rdf-syntax-ns#"
   xmlns:cc="http://creativecommons.org/ns#"><defs
     id="defs1267" /><sodipodi:namedview
     id="namedview1267"
     pagecolor="#ffffff"
     bordercolor="#000000"
     borderopacity="0.25"
     inkscape:showpageshadow="2"
     inkscape:pageopacity="0.0"
     inkscape:pagecheckerboard="0"
     inkscape:deskcolor="#d1d1d1"
     inkscape:document-units="mm"
     inkscape:zoom="8"
     inkscape:cx="50.5625"
     inkscape:cy="44.6875"
     inkscape:window-width="2560"
     inkscape:window-height="1369"
     inkscape:window-x="1912"
     inkscape:window-y="-8"
     inkscape:window-maximized="1"
     inkscape:current-layer="svg1267"
     showguides="true"
     showgrid="false" /><metadata
     id="metadata1267"><rdf:RDF><cc:Work
         rdf:about="" /></rdf:RDF></metadata><path
     d="m 18.49304,14.58375 q -0.496711,0 -0.874889,-0.180622 -0.372533,-0.180622 -0.581377,-0.496711 -0.208844,-0.321733 -0.208844,-0.733777 0,-0.174978 0.0508,-0.344311 0.0508,-0.174978 0.129822,-0.327377 0.07902,-0.1524 0.158044,-0.270934 0.07902,-0.124177 0.129822,-0.197555 l 0.999066,-1.343377 q 0.02258,-0.02822 0.06773,-0.06773 0.0508,-0.04516 0.135467,-0.04516 h 0.728133 q 0.0508,0 0.08467,0.03951 0.03387,0.03387 0.03387,0.08467 0,0.02258 -0.0056,0.04516 -0.0056,0.01693 -0.01693,0.02822 l -0.767644,1.044221 q 0.03951,-0.01129 0.08467,-0.01129 0.0508,-0.0056 0.09031,-0.0056 0.259644,0.0056 0.508,0.107244 0.248355,0.1016 0.451555,0.282222 0.2032,0.174978 0.321733,0.423333 0.124178,0.242711 0.124178,0.541867 0,0.389466 -0.2032,0.716844 -0.2032,0.321733 -0.570089,0.519288 -0.366888,0.191911 -0.869243,0.191911 z m -0.0056,-0.80151 q 0.169333,0 0.310444,-0.06773 0.146756,-0.07338 0.237067,-0.208844 0.09031,-0.135467 0.09031,-0.338666 0,-0.197556 -0.09031,-0.333022 -0.09031,-0.135467 -0.237067,-0.2032 -0.141111,-0.07338 -0.310444,-0.07338 -0.169333,0 -0.316089,0.07338 -0.146755,0.06773 -0.237066,0.2032 -0.08467,0.135466 -0.08467,0.333022 0,0.203199 0.08467,0.338666 0.09031,0.135466 0.237066,0.208844 0.146756,0.06773 0.316089,0.06773 z m 2.190044,0.745066 q -0.06209,0 -0.1016,-0.03951 -0.03951,-0.03951 -0.03951,-0.1016 v -0.389467 q 0,-0.03951 0.02258,-0.118533 0.02258,-0.08467 0.118533,-0.158044 l 0.615244,-0.603955 q 0.440266,-0.338667 0.722488,-0.575733 0.287867,-0.237067 0.423333,-0.417689 0.141111,-0.186266 0.141111,-0.3556 0,-0.197555 -0.1016,-0.327377 -0.1016,-0.129822 -0.349955,-0.129822 -0.169333,0 -0.282222,0.07338 -0.107244,0.07338 -0.169333,0.186267 -0.05645,0.112889 -0.08467,0.237066 -0.01693,0.07338 -0.07338,0.1016 -0.0508,0.02822 -0.112888,0.02822 h -0.682978 q -0.05644,0 -0.09031,-0.03387 -0.03387,-0.03387 -0.03387,-0.08467 0.0056,-0.270933 0.112888,-0.502355 0.112889,-0.237066 0.310445,-0.417688 0.197555,-0.186267 0.474133,-0.287867 0.282222,-0.1016 0.626533,-0.1016 0.479777,0 0.812799,0.158045 0.333022,0.152399 0.508,0.423333 0.174977,0.270933 0.174977,0.632177 0,0.282222 -0.124178,0.519288 -0.118533,0.237067 -0.338666,0.4572 -0.214489,0.214489 -0.519288,0.445911 l -0.547511,0.54751 h 1.467554 q 0.06209,0 0.1016,0.03951 0.04516,0.03951 0.04516,0.101599 v 0.553156 q 0,0.06209 -0.04516,0.1016 -0.03951,0.03951 -0.1016,0.03951 z"
     id="text1"
     style="display:inline;stroke-width:0.264583"
     inkscape:label="Rubik Bold 16px"
     aria-label="62" /><path
     style="display:inline;stroke-width:0.264583"
     d="m 17.294181,8.6986589 q -0.05644,0 -0.1016,-0.039511 -0.03951,-0.039511 -0.03951,-0.1016 V 4.8886618 q 0,-0.062089 0.03951,-0.1015999 0.04516,-0.039511 0.1016,-0.039511 h 0.694266 q 0.06209,0 0.1016,0.039511 0.03951,0.039511 0.03951,0.1015999 V 6.147372 l 1.0668,-1.2925768 q 0.02258,-0.033867 0.07338,-0.067733 0.05645,-0.039511 0.146756,-0.039511 h 0.790221 q 0.04516,0 0.07902,0.039511 0.03951,0.033867 0.03951,0.079022 0,0.039511 -0.02258,0.067733 l -1.371599,1.704621 1.478843,1.8739541 q 0.02258,0.022578 0.02258,0.067733 0,0.045155 -0.03951,0.084667 -0.03387,0.033867 -0.07902,0.033867 h -0.818444 q -0.1016,0 -0.158044,-0.045155 -0.0508,-0.045155 -0.06773,-0.067733 L 18.129558,7.1803045 v 1.3772434 q 0,0.062089 -0.03951,0.1016 -0.03951,0.039511 -0.1016,0.039511 z m 3.663241,0 q -0.05644,0 -0.1016,-0.039511 -0.03951,-0.039511 -0.03951,-0.1016 V 5.9046611 q 0,-0.056444 0.03951,-0.095956 0.04516,-0.045155 0.1016,-0.045155 h 0.632177 q 0.06209,0 0.1016,0.045155 0.04516,0.039511 0.04516,0.095956 v 0.2257776 q 0.146755,-0.1749777 0.355599,-0.2709332 0.214489,-0.095955 0.479778,-0.095955 h 0.248355 q 0.05645,0 0.09596,0.039511 0.04516,0.039511 0.04516,0.1016 v 0.564444 q 0,0.062089 -0.04516,0.1015999 -0.03951,0.039511 -0.09596,0.039511 h -0.536222 q -0.237066,0 -0.366888,0.1298221 -0.129822,0.1298221 -0.129822,0.3668886 v 1.4506211 q 0,0.062089 -0.04516,0.1016 -0.03951,0.039511 -0.1016,0.039511 z m 3.894665,0 q -0.361244,0 -0.620889,-0.1128888 Q 23.971554,8.4672369 23.830443,8.224526 23.694977,7.9761706 23.694977,7.5923487 V 6.4916828 H 23.25471 q -0.06209,0 -0.1016,-0.039511 -0.03951,-0.045156 -0.03951,-0.1016 V 5.9046611 q 0,-0.062089 0.03951,-0.1016 0.03951,-0.039511 0.1016,-0.039511 h 0.440267 V 4.8322174 q 0,-0.062089 0.03951,-0.1015999 0.04516,-0.039511 0.1016,-0.039511 h 0.637821 q 0.05645,0 0.09596,0.039511 0.04516,0.039511 0.04516,0.1015999 v 0.9313327 h 0.705555 q 0.06209,0 0.1016,0.039511 0.03951,0.039511 0.03951,0.1016 v 0.4459107 q 0,0.056444 -0.03951,0.1016 -0.03951,0.039511 -0.1016,0.039511 H 24.61502 v 1.0216437 q 0,0.1975554 0.07338,0.3104442 0.07338,0.1128888 0.248355,0.1128888 h 0.434622 q 0.05645,0 0.09596,0.045155 0.04515,0.039511 0.04515,0.095955 v 0.4797774 q 0,0.062089 -0.04515,0.1016 -0.03951,0.039511 -0.09596,0.039511 z m 1.275647,0 q -0.06209,0 -0.1016,-0.039511 -0.03951,-0.039511 -0.03951,-0.1016 V 4.8322174 q 0,-0.062089 0.03951,-0.1015999 0.03951,-0.039511 0.1016,-0.039511 h 0.632178 q 0.06209,0 0.101599,0.039511 0.03951,0.039511 0.03951,0.1015999 v 1.8965319 l 0.80151,-0.8692438 q 0.03387,-0.039511 0.07338,-0.067733 0.03951,-0.028222 0.118533,-0.028222 h 0.728133 q 0.05644,0 0.09031,0.039511 0.03951,0.033867 0.03951,0.084667 0,0.022578 -0.01129,0.0508 -0.01129,0.028222 -0.03387,0.045155 l -1.032932,1.0950214 1.174043,1.4054656 q 0.03951,0.045155 0.03951,0.090311 0,0.0508 -0.03951,0.090311 -0.03387,0.033867 -0.08467,0.033867 h -0.756355 q -0.08467,0 -0.124178,-0.028222 -0.03387,-0.033867 -0.07338,-0.067733 L 26.901023,7.5246154 v 1.0329325 q 0,0.062089 -0.03951,0.1016 -0.03951,0.039511 -0.101599,0.039511 z m 4.202743,0.056444 q -0.327378,0 -0.581378,-0.1467554 Q 29.500744,8.4615925 29.359633,8.1793704 29.218522,7.891504 29.218522,7.4794599 V 5.9046611 q 0,-0.062089 0.03951,-0.1016 0.04515,-0.039511 0.1016,-0.039511 h 0.688622 q 0.06209,0 0.101599,0.039511 0.04516,0.039511 0.04516,0.1016 v 1.5409321 q 0,0.5700885 0.502355,0.5700885 0.237067,0 0.378178,-0.1467555 0.141111,-0.1523998 0.141111,-0.423333 V 5.9046611 q 0,-0.062089 0.03951,-0.1016 0.03951,-0.039511 0.1016,-0.039511 h 0.688621 q 0.05645,0 0.09596,0.039511 0.04516,0.039511 0.04516,0.1016 v 2.6528868 q 0,0.062089 -0.04516,0.1016 -0.03951,0.039511 -0.09596,0.039511 h -0.637821 q -0.06209,0 -0.1016,-0.039511 -0.03951,-0.039511 -0.03951,-0.1016 V 8.3374148 Q 31.120698,8.5462591 30.883632,8.6535034 30.65221,8.7551033 30.330477,8.7551029 Z m 3.72533,0 q -0.361244,0 -0.620888,-0.079022 -0.254,-0.084667 -0.417689,-0.2031999 -0.158044,-0.1185332 -0.237066,-0.2427109 -0.07338,-0.1298221 -0.07902,-0.2201332 -0.0056,-0.062089 0.03387,-0.1015999 0.04516,-0.039511 0.09595,-0.039511 h 0.626533 q 0.01693,0 0.02822,0.00564 0.01693,0.00564 0.03387,0.022578 0.07338,0.045156 0.146756,0.1072444 0.07338,0.056444 0.169333,0.1015999 0.1016,0.039511 0.242711,0.039511 0.163689,0 0.276577,-0.062089 0.112889,-0.067733 0.112889,-0.191911 0,-0.090311 -0.05644,-0.1523999 -0.0508,-0.062089 -0.208845,-0.1128888 Q 34.050163,7.5697709 33.734074,7.5076821 33.440563,7.4399488 33.22043,7.3327044 33.000297,7.2198156 32.881763,7.044838 32.768875,6.8642159 32.768875,6.6158605 q 0,-0.2257776 0.141111,-0.4346219 0.146755,-0.2088443 0.423333,-0.3386664 0.282222,-0.1354665 0.69991,-0.1354665 0.316089,0 0.5588,0.079022 0.242711,0.073378 0.406399,0.191911 0.163689,0.1128888 0.248356,0.2427109 0.08467,0.1241777 0.09031,0.2201332 0.0056,0.062089 -0.03387,0.1015999 -0.03951,0.039511 -0.09031,0.039511 h -0.575733 q -0.02258,0 -0.04516,-0.00564 -0.02258,-0.011289 -0.03387,-0.022578 -0.07338,-0.033867 -0.141111,-0.090311 -0.06773,-0.062089 -0.158044,-0.1015999 -0.09031,-0.045155 -0.231422,-0.045155 -0.158045,0 -0.248356,0.067733 -0.08467,0.067733 -0.08467,0.1806221 0,0.073378 0.04516,0.1354665 0.0508,0.062089 0.2032,0.1185333 0.1524,0.0508 0.468489,0.1128888 0.389466,0.062089 0.615244,0.2031998 0.231422,0.1354666 0.327377,0.3217331 0.1016,0.1806221 0.1016,0.3781775 0,0.2709331 -0.163689,0.4797774 -0.158044,0.2088443 -0.474133,0.3273775 -0.310444,0.1128888 -0.761999,0.1128888 z"
     id="text1-0"
     inkscape:label="Rubik Bold 16px"
     aria-label="Krtkus" /><path
     id="path1"
     style="display:inline;fill:#000000;fill-opacity:1;fill-rule:evenodd;stroke:none;stroke-width:0.0997237"
     d="M 8.3058037 1.5601163 C 8.2920543 1.5614 8.2768468 1.5683521 8.2619878 1.5786736 C 8.1813115 1.634818 7.823486 1.9307085 7.6944434 2.4508672 C 7.5661988 2.9677352 7.6674115 3.3891706 7.7155781 3.5210054 C 7.4880087 3.6296044 7.2755596 3.8437574 7.1748388 4.0803021 C 7.0406108 4.3955287 7.0137192 5.0139566 6.9990598 5.4442644 C 6.9790152 6.0319361 6.9326787 6.5434919 6.8964791 6.9463755 C 6.8891992 7.0269524 6.8766432 7.0956396 6.844931 7.1468975 C 6.737429 7.3208156 6.3542502 7.6338163 5.944386 7.9293974 C 5.4122603 8.3132339 4.9241443 8.8221035 4.5582581 9.3036693 C 4.0655234 9.9521723 3.9165628 10.421143 3.7999858 10.799595 C 3.6954754 10.975208 3.6245334 11.116352 3.5762671 11.334148 C 3.514838 11.610981 3.4916064 11.831611 3.5154404 12.167681 C 3.5317951 12.397643 3.578761 12.677892 3.7195708 12.860487 C 3.8221865 12.993517 3.9494015 13.001707 4.0051471 13.007399 C 4.0269865 13.062347 4.0704202 13.162445 4.1195839 13.24452 C 4.1281602 13.559047 4.0860982 13.834838 4.2360826 14.352804 C 4.373801 14.828385 4.553593 15.067991 4.8118746 15.357992 C 4.3980213 15.414435 4.1097435 15.647737 3.8340075 15.996672 C 3.5312464 16.379811 3.3587158 16.780647 3.3551258 17.126091 C 3.3543278 17.197995 3.3789318 17.247639 3.4365718 17.268879 C 3.8739599 17.429931 4.4288831 17.48014 5.0541506 17.44105 C 5.8932257 17.388596 6.3098616 17.193555 6.6634818 16.950827 C 7.027573 16.700921 7.1715246 16.393601 7.1650446 16.162142 C 7.6031308 16.170622 8.1148465 16.159823 8.4769433 16.109563 C 8.6298197 16.177075 8.8550644 16.23793 9.4027469 16.29926 C 10.083661 16.37545 10.584257 16.316536 10.999706 16.284826 C 11.429615 16.252016 11.795185 16.204407 11.877055 16.188947 C 11.992141 16.167307 12.045969 16.101076 12.037369 15.984301 C 12.000172 15.403709 11.683733 14.972988 11.189403 14.816221 C 11.639157 14.25737 11.927709 13.546738 12.078092 12.971831 C 12.245727 13.087208 12.352282 13.119791 12.606976 12.873374 C 12.758755 12.975093 12.944044 12.854877 13.106992 12.560993 C 13.218484 12.359849 13.300711 12.096708 13.261121 11.699109 C 13.221531 11.301511 13.076708 11.104055 12.961627 10.912485 C 12.587962 9.7440228 11.147857 8.0643419 10.739389 7.6494913 C 10.705782 7.2579762 10.629115 6.4467902 10.285766 6.0540782 C 10.437073 5.8785644 10.481388 5.5172244 10.428038 5.3638494 C 10.374781 5.2103747 10.330524 5.2113746 10.279064 5.2633306 C 10.237379 5.3054146 10.20077 5.3277466 10.15071 5.3576636 C 10.134854 5.0876118 10.095826 4.6740181 9.9331767 4.3169078 C 9.806428 4.0384791 9.632393 3.8066268 9.3656323 3.6189468 C 9.0989711 3.4312664 8.8187343 3.3833453 8.6640629 3.3612063 C 8.6676529 3.23715 8.6786836 3.1580293 8.7238586 3.0276902 C 8.7763132 2.8764095 8.8832001 2.752661 8.9001531 2.726134 C 8.9172031 2.699408 8.9223214 2.6742106 8.8919054 2.6539666 C 8.8614894 2.6336226 8.8364406 2.6458961 8.8181916 2.6694311 C 8.8042304 2.6875809 8.7134817 2.7886265 8.6413817 2.9720183 C 8.5788547 3.1309778 8.574117 3.2345177 8.566637 3.3478038 C 8.4356997 3.3437148 8.334089 3.3492073 8.2284816 3.3632683 C 8.2032546 3.2825918 8.1677643 3.051615 8.2228113 2.7957239 C 8.277759 2.5398331 8.4376927 2.3531109 8.4934387 2.2853979 C 8.5143827 2.2599689 8.5160748 2.2298001 8.4903458 2.2106531 C 8.4668108 2.1931021 8.4433397 2.1994778 8.4130237 2.2317878 C 8.3533889 2.2952121 8.1824947 2.5105545 8.1274473 2.7756201 C 8.0724005 3.0406856 8.1147011 3.2920068 8.1310557 3.3797636 C 7.974689 3.414567 7.8912197 3.4429 7.8109421 3.4746121 C 7.7724487 3.3974259 7.6567914 2.9429141 7.78723 2.4725174 C 7.9209594 1.9904531 8.2379643 1.7152085 8.3171443 1.6492945 C 8.3475613 1.6239645 8.3587899 1.6041182 8.3403409 1.5760962 C 8.3319144 1.5633302 8.3195531 1.5588327 8.3058037 1.5601163 z M 9.6249191 4.9617743 C 9.6519441 4.9631743 9.6834621 4.9671194 9.7073961 4.9725994 C 9.7028061 5.0574643 9.6951796 5.1468048 9.7058496 5.2313708 C 9.7120325 5.2804349 9.7396608 5.4081423 9.8218328 5.4071497 C 9.9176673 5.4059529 9.9292557 5.3016675 9.9321457 5.2128135 C 9.9341407 5.1496883 9.9317412 5.1093115 9.9197742 5.0241475 C 9.9554747 5.0372115 10.000136 5.0618722 10.029056 5.0860052 C 10.047116 5.202981 10.04609 5.2980381 10.04349 5.41282 C 9.9687956 5.465474 9.8368621 5.5408207 9.7599751 5.5303497 C 9.6755091 5.5188814 9.6384986 5.4035736 9.6254346 5.2947749 C 9.6124618 5.1870735 9.6113561 5.0760577 9.6249191 4.9617743 z M 8.8233464 5.0014663 C 8.9474015 5.1814675 8.9567156 5.4142227 8.9403606 5.5684952 C 8.9347756 5.6210532 8.8948091 5.6417833 8.8465431 5.6200433 C 8.7204924 5.5633003 8.6827895 5.5569087 8.5475642 5.5282877 C 8.5059796 5.5195117 8.4655586 5.4900585 8.4429216 5.4540585 C 8.3894696 5.3688945 8.3564111 5.2658324 8.3619911 5.1751834 C 8.3855253 5.151648 8.4202581 5.1291973 8.4573551 5.1107483 C 8.4727131 5.2089761 8.4864295 5.3086474 8.5382855 5.3896234 C 8.5830615 5.4597254 8.6667709 5.4849376 8.7315909 5.4499346 C 8.8028929 5.4114413 8.7992357 5.322685 8.7903557 5.266939 C 8.7751977 5.171304 8.7511064 5.1205153 8.7032394 5.0282713 C 8.7372457 5.0185983 8.7788694 5.0085463 8.8233464 5.0014663 z M 8.2908547 5.5860216 C 8.3554632 5.5884555 8.4289606 5.5965035 8.5145734 5.6092182 C 8.8570245 5.6600773 9.0241636 5.8454377 9.1212944 5.9437653 C 9.1685634 5.9916326 9.2142433 6.0101626 9.2769696 6.0102623 C 9.4100011 6.0105614 9.4611972 6.0115775 9.7476036 5.9437653 C 9.752675 6.05594 9.8104513 6.1597681 9.8991549 6.2360429 C 9.6887587 6.3380069 9.512963 6.3467107 9.3424356 6.3236747 C 9.165426 6.2996412 8.9344444 6.2206279 8.7656126 6.1154204 C 8.8408036 6.0058241 8.8437722 5.9624627 8.8563372 5.9056197 C 8.8689022 5.8487767 8.7967156 5.8278576 8.7774686 5.8819076 C 8.7558285 5.9426392 8.7158337 6.0763479 8.5882872 6.1556279 C 8.5011889 6.2074909 8.3246607 6.2127653 8.2253887 6.1999593 C 8.1665397 6.1923673 8.1553568 6.279672 8.2083778 6.288622 C 8.3076249 6.305376 8.4398168 6.3029682 8.578493 6.2695492 C 8.707312 6.5657969 8.9093843 6.9828617 9.0207756 7.1319486 C 9.1344607 7.284127 9.210942 7.3354763 9.2981043 7.3345326 C 9.3955552 7.3334776 9.4657608 7.2374275 9.5006882 7.1494749 C 9.5643118 6.9804432 9.6280216 6.7308524 9.6130631 6.4427507 C 9.749884 6.4088446 9.9362406 6.3533566 10.051222 6.2829517 C 10.058901 6.9512998 10.065682 7.7339557 10.228032 8.6737517 C 10.424289 9.8099036 10.592834 10.404779 10.929601 11.485184 C 11.100531 12.033365 11.109608 12.745023 11.012078 13.071319 C 10.884033 13.499633 10.583065 14.26326 9.4146029 14.441467 C 8.4597487 14.587064 7.6836017 14.046773 7.5062929 13.475456 C 7.2165957 12.541843 7.5886241 11.858944 7.7032066 11.122286 C 7.8176896 10.385527 7.9052986 9.4320694 7.7779513 8.6072547 C 7.6224822 7.5997463 7.353404 7.1462115 7.5150561 6.3576964 C 7.5422806 6.2250638 7.6666088 5.9089518 7.8465103 5.7453052 C 7.9814365 5.6224954 8.0970293 5.57872 8.2908547 5.5860216 z M 9.4228506 6.9556541 C 9.4480936 6.9507121 9.4683515 6.9609878 9.4676975 6.9917378 C 9.466352 7.0549979 9.4235738 7.1501947 9.3640858 7.2103017 C 9.3344375 7.2402589 9.2697944 7.2553972 9.2135654 7.2108172 C 9.1413453 7.1535586 9.0696798 7.0571649 9.0681998 7.0015319 C 9.0675708 6.9778879 9.0828617 6.9681128 9.1109847 6.9649328 C 9.1542638 6.9600368 9.2221592 6.9920659 9.2872792 6.9896759 C 9.3522988 6.9872859 9.3905426 6.9619841 9.4228506 6.9556541 z M 9.7254379 7.6989775 C 9.7147555 7.6995759 9.7030015 7.7059059 9.6934781 7.7195967 C 9.6394332 7.7981501 9.5599663 7.8714133 9.4548105 7.9314594 C 9.349602 7.9915924 9.1761537 8.015653 9.0393329 7.953625 C 8.9024123 7.8915968 8.8190306 7.8147027 8.7645816 7.7613507 C 8.7289796 7.7264477 8.6749028 7.7720585 8.7058168 7.8051665 C 8.771734 7.8756711 8.8735762 7.9640956 9.0053112 8.0237304 C 9.1370461 8.0833651 9.3349264 8.0937769 9.4908941 8.0036267 C 9.646862 7.9134765 9.7024303 7.8249025 9.7506964 7.7500101 C 9.7683164 7.722651 9.7491318 7.6976501 9.7254379 7.6989775 z M 4.2221646 10.799079 C 4.3705534 10.799304 4.541756 10.833167 4.7046546 10.903722 C 4.9794929 11.022692 4.9657025 11.079815 5.0330159 11.357345 C 5.0617363 11.475617 5.1880865 11.524669 5.286117 11.539825 C 5.3841455 11.554983 5.6686813 11.449035 5.7624213 11.416625 C 5.856161 11.384215 5.9124052 11.413771 5.9392312 11.460441 C 5.9661565 11.507112 5.988296 11.711637 5.7990204 11.902208 C 5.6097449 12.092772 5.4612677 12.071914 5.1500301 12.096544 C 5.1374649 12.619993 5.3489886 12.84283 5.4185956 13.021833 C 5.4882029 13.200938 5.3945595 13.411125 5.2355999 13.453805 C 5.0766404 13.496588 4.9714623 13.446403 4.8402261 13.261016 C 4.7089897 13.07553 4.6980631 12.71385 4.6922831 12.374389 C 4.6912861 12.3184 4.602843 12.317408 4.601043 12.373358 C 4.59506 12.566623 4.5957828 12.722416 4.6201158 12.889354 C 4.6444482 13.056291 4.6773554 13.180381 4.7237274 13.277511 C 4.6610012 13.347121 4.5909607 13.381568 4.4726883 13.375968 C 4.3834356 13.37178 4.2655407 13.33658 4.1793797 13.168745 C 4.0719737 12.959525 4.027536 12.73316 4.076799 12.300159 C 4.080689 12.253889 4.0021304 12.228101 3.9860744 12.286241 C 3.9482764 12.422763 3.9522528 12.739664 3.9886518 12.913582 C 3.9227345 12.916275 3.8576331 12.902155 3.7788511 12.789866 C 3.6886013 12.661421 3.6516657 12.488379 3.6283307 12.280056 C 3.5924307 11.959146 3.6183486 11.731289 3.6432796 11.527454 C 3.6719003 11.293802 3.7683759 10.993035 3.8762769 10.896505 C 3.9480281 10.832333 4.0737757 10.798855 4.2221646 10.799079 z M 12.425011 10.845472 L 12.425526 10.845472 C 12.931953 10.841322 13.031122 11.18591 13.097713 11.391367 C 13.164333 11.596898 13.234297 12.010297 13.078125 12.407895 C 12.948684 12.737481 12.77873 12.84292 12.671926 12.792959 C 12.859606 12.545644 12.908826 12.400286 12.93276 12.199641 C 12.94256 12.118171 12.844957 12.126588 12.833787 12.207888 C 12.791907 12.513242 12.552652 12.803259 12.449239 12.888323 C 12.345925 12.973383 12.277208 12.99957 12.15026 12.908427 C 12.314804 12.71247 12.44142 12.443077 12.469342 12.294489 C 12.484502 12.213809 12.406841 12.199804 12.381711 12.277994 C 12.301131 12.528998 12.120903 12.812187 12.033246 12.896055 C 11.945586 12.979925 11.841761 13.002916 11.755401 12.983171 C 11.669041 12.963531 11.613372 12.896315 11.699729 12.705843 C 11.786089 12.515371 12.052067 12.188381 12.01108 11.827979 C 12.00778 11.798659 11.964917 11.743277 11.883241 11.750657 C 11.801571 11.758057 11.645624 11.83325 11.438896 11.70581 C 11.255505 11.592722 11.197616 11.378627 11.227034 11.230537 C 11.256454 11.082448 11.369599 11.071636 11.530652 11.180535 C 11.701379 11.296015 11.815284 11.244603 11.857467 11.221773 C 11.847297 11.180383 11.840559 11.165125 11.870869 11.096512 C 11.919106 10.987488 12.171686 10.84785 12.425011 10.845472 z M 11.125484 14.906946 C 11.324333 14.951126 11.556627 15.101707 11.702822 15.300258 C 11.856397 15.50888 11.913992 15.729566 11.923964 15.970898 C 11.927564 16.057658 11.885599 16.081449 11.799733 16.094614 C 11.527188 16.136394 11.045663 16.21057 10.258445 16.22503 C 9.4712261 16.23949 9.0261735 16.165249 8.6583926 16.065231 C 9.1329775 15.980071 9.6018098 15.883642 10.140915 15.623464 C 10.704254 15.351618 11.059866 14.959899 11.125484 14.906946 z M 5.2778693 15.40954 C 5.6024631 15.400967 5.9555013 15.433978 6.2727473 15.518306 C 6.5889711 15.602275 6.9113115 15.785766 7.0176171 16.01523 C 7.1660058 16.335344 6.8842071 16.6091 6.6706985 16.79309 C 6.3862867 17.038309 5.8565707 17.236935 5.3237471 17.30754 C 4.7529288 17.38313 4.0451196 17.341692 3.5443073 17.196196 C 3.4616383 17.172166 3.4555165 17.169981 3.4577065 17.083821 C 3.4656844 16.775475 3.7216991 16.271973 3.9340108 16.026055 C 4.1666662 15.756602 4.3807512 15.540689 4.7381609 15.467789 C 4.898554 15.435105 5.083113 15.414683 5.2778693 15.40954 z "
     inkscape:label="Krtkus"
     transform="matrix(1.0024899,0,0,1.0024899,-0.03396722,-0.03489523)" /></svg>
