<?xml version="1.0" encoding="UTF-8" standalone="no"?>
<svg
   version="1.1"
   width="40mm"
   height="20mm"
   viewBox="0 0 39.999998 20"
   id="svg1267"
   sodipodi:docname="krtkus_logo.svg"
   inkscape:version="1.4.2 (f4327f4, 2025-05-13)"
   inkscape:export-filename="logoe.svg"
   inkscape:export-xdpi="96"
   inkscape:export-ydpi="96"
   xml:space="preserve"
   xmlns:inkscape="http://www.inkscape.org/namespaces/inkscape"
   xmlns:sodipodi="http://sodipodi.sourceforge.net/DTD/sodipodi-0.dtd"
   xmlns="http://www.w3.org/2000/svg"
   xmlns:svg="http://www.w3.org/2000/svg"
   xmlns:rdf="http://www.w3.org/1999/02/22-rdf-syntax-ns#"
   xmlns:cc="http://creativecommons.org/ns#"><defs
     id="defs1267" /><sodipodi:namedview
     id="namedview1267"
     pagecolor="#ffffff"
     bordercolor="#000000"
     borderopacity="0.25"
     inkscape:showpageshadow="2"
     inkscape:pageopacity="0.0"
     inkscape:pagecheckerboard="0"
     inkscape:deskcolor="#d1d1d1"
     inkscape:document-units="mm"
     inkscape:zoom="8"
     inkscape:cx="38.5"
     inkscape:cy="44.1875"
     inkscape:window-width="2560"
     inkscape:window-height="1369"
     inkscape:window-x="1912"
     inkscape:window-y="-8"
     inkscape:window-maximized="1"
     inkscape:current-layer="svg1267"
     showguides="true"
     showgrid="false" /><metadata
     id="metadata1267"><rdf:RDF><cc:Work
         rdf:about="" /></rdf:RDF></metadata><path
     d="m 18.49304,14.58375 q -0.496711,0 -0.874889,-0.180622 -0.372533,-0.180622 -0.581377,-0.496711 -0.208844,-0.321733 -0.208844,-0.733777 0,-0.174978 0.0508,-0.344311 0.0508,-0.174978 0.129822,-0.327377 0.07902,-0.1524 0.158044,-0.270934 0.07902,-0.124177 0.129822,-0.197555 l 0.999066,-1.343377 q 0.02258,-0.02822 0.06773,-0.06773 0.0508,-0.04516 0.135467,-0.04516 h 0.728133 q 0.0508,0 0.08467,0.03951 0.03387,0.03387 0.03387,0.08467 0,0.02258 -0.0056,0.04516 -0.0056,0.01693 -0.01693,0.02822 l -0.767644,1.044221 q 0.03951,-0.01129 0.08467,-0.01129 0.0508,-0.0056 0.09031,-0.0056 0.259644,0.0056 0.508,0.107244 0.248355,0.1016 0.451555,0.282222 0.2032,0.174978 0.321733,0.423333 0.124178,0.242711 0.124178,0.541867 0,0.389466 -0.2032,0.716844 -0.2032,0.321733 -0.570089,0.519288 -0.366888,0.191911 -0.869243,0.191911 z m -0.0056,-0.80151 q 0.169333,0 0.310444,-0.06773 0.146756,-0.07338 0.237067,-0.208844 0.09031,-0.135467 0.09031,-0.338666 0,-0.197556 -0.09031,-0.333022 -0.09031,-0.135467 -0.237067,-0.2032 -0.141111,-0.07338 -0.310444,-0.07338 -0.169333,0 -0.316089,0.07338 -0.146755,0.06773 -0.237066,0.2032 -0.08467,0.135466 -0.08467,0.333022 0,0.203199 0.08467,0.338666 0.09031,0.135466 0.237066,0.208844 0.146756,0.06773 0.316089,0.06773 z m 2.190044,0.745066 q -0.06209,0 -0.1016,-0.03951 -0.03951,-0.03951 -0.03951,-0.1016 v -0.389467 q 0,-0.03951 0.02258,-0.118533 0.02258,-0.08467 0.118533,-0.158044 l 0.615244,-0.603955 q 0.440266,-0.338667 0.722488,-0.575733 0.287867,-0.237067 0.423333,-0.417689 0.141111,-0.186266 0.141111,-0.3556 0,-0.197555 -0.1016,-0.327377 -0.1016,-0.129822 -0.349955,-0.129822 -0.169333,0 -0.282222,0.07338 -0.107244,0.07338 -0.169333,0.186267 -0.05645,0.112889 -0.08467,0.237066 -0.01693,0.07338 -0.07338,0.1016 -0.0508,0.02822 -0.112888,0.02822 h -0.682978 q -0.05644,0 -0.09031,-0.03387 -0.03387,-0.03387 -0.03387,-0.08467 0.0056,-0.270933 0.112888,-0.502355 0.112889,-0.237066 0.310445,-0.417688 0.197555,-0.186267 0.474133,-0.287867 0.282222,-0.1016 0.626533,-0.1016 0.479777,0 0.812799,0.158045 0.333022,0.152399 0.508,0.423333 0.174977,0.270933 0.174977,0.632177 0,0.282222 -0.124178,0.519288 -0.118533,0.237067 -0.338666,0.4572 -0.214489,0.214489 -0.519288,0.445911 l -0.547511,0.54751 h 1.467554 q 0.06209,0 0.1016,0.03951 0.04516,0.03951 0.04516,0.101599 v 0.553156 q 0,0.06209 -0.04516,0.1016 -0.03951,0.03951 -0.1016,0.03951 z"
     id="text1"
     style="display:inline;stroke-width:0.264583"
     inkscape:label="Rubik Bold 16px"
     aria-label="62" /><path
     style="display:inline;stroke-width:0.264583"
     d="m 17.294181,8.6986589 q -0.05644,0 -0.1016,-0.039511 -0.03951,-0.039511 -0.03951,-0.1016 V 4.8886618 q 0,-0.062089 0.03951,-0.1015999 0.04516,-0.039511 0.1016,-0.039511 h 0.694266 q 0.06209,0 0.1016,0.039511 0.03951,0.039511 0.03951,0.1015999 V 6.147372 l 1.0668,-1.2925768 q 0.02258,-0.033867 0.07338,-0.067733 0.05645,-0.039511 0.146756,-0.039511 h 0.790221 q 0.04516,0 0.07902,0.039511 0.03951,0.033867 0.03951,0.079022 0,0.039511 -0.02258,0.067733 l -1.371599,1.704621 1.478843,1.8739541 q 0.02258,0.022578 0.02258,0.067733 0,0.045155 -0.03951,0.084667 -0.03387,0.033867 -0.07902,0.033867 h -0.818444 q -0.1016,0 -0.158044,-0.045155 -0.0508,-0.045155 -0.06773,-0.067733 L 18.129558,7.1803045 v 1.3772434 q 0,0.062089 -0.03951,0.1016 -0.03951,0.039511 -0.1016,0.039511 z m 3.663241,0 q -0.05644,0 -0.1016,-0.039511 -0.03951,-0.039511 -0.03951,-0.1016 V 5.9046611 q 0,-0.056444 0.03951,-0.095956 0.04516,-0.045155 0.1016,-0.045155 h 0.632177 q 0.06209,0 0.1016,0.045155 0.04516,0.039511 0.04516,0.095956 v 0.2257776 q 0.146755,-0.1749777 0.355599,-0.2709332 0.214489,-0.095955 0.479778,-0.095955 h 0.248355 q 0.05645,0 0.09596,0.039511 0.04516,0.039511 0.04516,0.1016 v 0.564444 q 0,0.062089 -0.04516,0.1015999 -0.03951,0.039511 -0.09596,0.039511 h -0.536222 q -0.237066,0 -0.366888,0.1298221 -0.129822,0.1298221 -0.129822,0.3668886 v 1.4506211 q 0,0.062089 -0.04516,0.1016 -0.03951,0.039511 -0.1016,0.039511 z m 3.894665,0 q -0.361244,0 -0.620889,-0.1128888 Q 23.971554,8.4672369 23.830443,8.224526 23.694977,7.9761706 23.694977,7.5923487 V 6.4916828 H 23.25471 q -0.06209,0 -0.1016,-0.039511 -0.03951,-0.045156 -0.03951,-0.1016 V 5.9046611 q 0,-0.062089 0.03951,-0.1016 0.03951,-0.039511 0.1016,-0.039511 h 0.440267 V 4.8322174 q 0,-0.062089 0.03951,-0.1015999 0.04516,-0.039511 0.1016,-0.039511 h 0.637821 q 0.05645,0 0.09596,0.039511 0.04516,0.039511 0.04516,0.1015999 v 0.9313327 h 0.705555 q 0.06209,0 0.1016,0.039511 0.03951,0.039511 0.03951,0.1016 v 0.4459107 q 0,0.056444 -0.03951,0.1016 -0.03951,0.039511 -0.1016,0.039511 H 24.61502 v 1.0216437 q 0,0.1975554 0.07338,0.3104442 0.07338,0.1128888 0.248355,0.1128888 h 0.434622 q 0.05645,0 0.09596,0.045155 0.04515,0.039511 0.04515,0.095955 v 0.4797774 q 0,0.062089 -0.04515,0.1016 -0.03951,0.039511 -0.09596,0.039511 z m 1.275647,0 q -0.06209,0 -0.1016,-0.039511 -0.03951,-0.039511 -0.03951,-0.1016 V 4.8322174 q 0,-0.062089 0.03951,-0.1015999 0.03951,-0.039511 0.1016,-0.039511 h 0.632178 q 0.06209,0 0.101599,0.039511 0.03951,0.039511 0.03951,0.1015999 v 1.8965319 l 0.80151,-0.8692438 q 0.03387,-0.039511 0.07338,-0.067733 0.03951,-0.028222 0.118533,-0.028222 h 0.728133 q 0.05644,0 0.09031,0.039511 0.03951,0.033867 0.03951,0.084667 0,0.022578 -0.01129,0.0508 -0.01129,0.028222 -0.03387,0.045155 l -1.032932,1.0950214 1.174043,1.4054656 q 0.03951,0.045155 0.03951,0.090311 0,0.0508 -0.03951,0.090311 -0.03387,0.033867 -0.08467,0.033867 h -0.756355 q -0.08467,0 -0.124178,-0.028222 -0.03387,-0.033867 -0.07338,-0.067733 L 26.901023,7.5246154 v 1.0329325 q 0,0.062089 -0.03951,0.1016 -0.03951,0.039511 -0.101599,0.039511 z m 4.202743,0.056444 q -0.327378,0 -0.581378,-0.1467554 Q 29.500744,8.4615925 29.359633,8.1793704 29.218522,7.891504 29.218522,7.4794599 V 5.9046611 q 0,-0.062089 0.03951,-0.1016 0.04515,-0.039511 0.1016,-0.039511 h 0.688622 q 0.06209,0 0.101599,0.039511 0.04516,0.039511 0.04516,0.1016 v 1.5409321 q 0,0.5700885 0.502355,0.5700885 0.237067,0 0.378178,-0.1467555 0.141111,-0.1523998 0.141111,-0.423333 V 5.9046611 q 0,-0.062089 0.03951,-0.1016 0.03951,-0.039511 0.1016,-0.039511 h 0.688621 q 0.05645,0 0.09596,0.039511 0.04516,0.039511 0.04516,0.1016 v 2.6528868 q 0,0.062089 -0.04516,0.1016 -0.03951,0.039511 -0.09596,0.039511 h -0.637821 q -0.06209,0 -0.1016,-0.039511 -0.03951,-0.039511 -0.03951,-0.1016 V 8.3374148 Q 31.120698,8.5462591 30.883632,8.6535034 30.65221,8.7551033 30.330477,8.7551029 Z m 3.72533,0 q -0.361244,0 -0.620888,-0.079022 -0.254,-0.084667 -0.417689,-0.2031999 -0.158044,-0.1185332 -0.237066,-0.2427109 -0.07338,-0.1298221 -0.07902,-0.2201332 -0.0056,-0.062089 0.03387,-0.1015999 0.04516,-0.039511 0.09595,-0.039511 h 0.626533 q 0.01693,0 0.02822,0.00564 0.01693,0.00564 0.03387,0.022578 0.07338,0.045156 0.146756,0.1072444 0.07338,0.056444 0.169333,0.1015999 0.1016,0.039511 0.242711,0.039511 0.163689,0 0.276577,-0.062089 0.112889,-0.067733 0.112889,-0.191911 0,-0.090311 -0.05644,-0.1523999 -0.0508,-0.062089 -0.208845,-0.1128888 Q 34.050163,7.5697709 33.734074,7.5076821 33.440563,7.4399488 33.22043,7.3327044 33.000297,7.2198156 32.881763,7.044838 32.768875,6.8642159 32.768875,6.6158605 q 0,-0.2257776 0.141111,-0.4346219 0.146755,-0.2088443 0.423333,-0.3386664 0.282222,-0.1354665 0.69991,-0.1354665 0.316089,0 0.5588,0.079022 0.242711,0.073378 0.406399,0.191911 0.163689,0.1128888 0.248356,0.2427109 0.08467,0.1241777 0.09031,0.2201332 0.0056,0.062089 -0.03387,0.1015999 -0.03951,0.039511 -0.09031,0.039511 h -0.575733 q -0.02258,0 -0.04516,-0.00564 -0.02258,-0.011289 -0.03387,-0.022578 -0.07338,-0.033867 -0.141111,-0.090311 -0.06773,-0.062089 -0.158044,-0.1015999 -0.09031,-0.045155 -0.231422,-0.045155 -0.158045,0 -0.248356,0.067733 -0.08467,0.067733 -0.08467,0.1806221 0,0.073378 0.04516,0.1354665 0.0508,0.062089 0.2032,0.1185333 0.1524,0.0508 0.468489,0.1128888 0.389466,0.062089 0.615244,0.2031998 0.231422,0.1354666 0.327377,0.3217331 0.1016,0.1806221 0.1016,0.3781775 0,0.2709331 -0.163689,0.4797774 -0.158044,0.2088443 -0.474133,0.3273775 -0.310444,0.1128888 -0.761999,0.1128888 z"
     id="text1-0"
     inkscape:label="Rubik Bold 16px"
     aria-label="Krtkus" /><path
     id="path1"
     style="display:inline;fill:#000000;fill-opacity:1;fill-rule:evenodd;stroke:none;stroke-width:0.0997237"
     d="M 8.2619878,1.5786736 C 8.1813115,1.634818 7.8234947,1.9307107 7.6944434,2.4508672 7.5662075,2.9677374 7.6674115,3.3891706 7.7155781,3.5210054 7.4880087,3.6296044 7.2755612,3.8437581 7.1748388,4.0803021 7.0406124,4.3955294 7.0137294,5.0139569 6.9990598,5.4442644 6.9790254,6.0319364 6.9327117,6.5434949 6.8964791,6.9463755 6.8892322,7.0269554 6.8766271,7.0956297 6.844931,7.1468975 6.7374129,7.3208057 6.3542328,7.6337922 5.944386,7.9293974 5.4122429,8.3132098 4.9241476,8.822106 4.5582581,9.3036693 4.0655267,9.9521748 3.9165628,10.421143 3.7999858,10.799595 c -0.1045104,0.175613 -0.1754191,0.316764 -0.2237187,0.534553 -0.061396,0.27684 -0.084688,0.497465 -0.060827,0.833533 0.016328,0.229964 0.063311,0.510219 0.2041304,0.692806 0.1026053,0.133038 0.2298307,0.14122 0.2855763,0.146912 0.021839,0.05495 0.065273,0.155046 0.1144368,0.237121 0.00858,0.314527 -0.033489,0.590319 0.1164987,1.108284 0.1377151,0.475582 0.3175104,0.715187 0.575792,1.005188 -0.4138533,0.05644 -0.7021311,0.289745 -0.9778671,0.63868 -0.3027611,0.383139 -0.4752497,0.783975 -0.4788817,1.129419 -7.56e-4,0.0719 0.023801,0.121561 0.081446,0.142788 0.4373835,0.161065 0.9923111,0.211258 1.6175788,0.172171 0.8390749,-0.05245 1.2557088,-0.247498 1.6093312,-0.490223 0.364089,-0.249909 0.5080428,-0.557226 0.5015628,-0.788685 0.4380862,0.0085 0.9498019,-0.0023 1.3118987,-0.05258 0.2416568,0.108662 0.9465113,0.245623 1.786351,0.224341 0.795847,-0.02017 1.476685,-0.119138 1.613761,-0.144954 0.115079,-0.02168 0.167989,-0.0878 0.160314,-0.204646 -0.01906,-0.290266 -0.107474,-0.543094 -0.252908,-0.742952 -0.145434,-0.199858 -0.347893,-0.346745 -0.595058,-0.425128 0.224877,-0.279426 0.415639,-0.592672 0.562794,-0.91205 0.147156,-0.319378 0.250703,-0.644887 0.325895,-0.93234 0.167635,0.115377 0.27419,0.14796 0.528884,-0.09846 0.151779,0.101719 0.337084,-0.01849 0.500016,-0.312381 0.111508,-0.201135 0.193719,-0.464285 0.154129,-0.861884 C 13.221531,11.30151 13.076708,11.104054 12.961627,10.912484 12.765666,10.317018 12.275766,9.6005741 11.986017,9.1939837 11.728623,8.8327952 10.934167,7.8517921 10.739389,7.6494913 10.705782,7.2579762 10.629115,6.4467902 10.285766,6.0540782 10.437073,5.8785644 10.481331,5.5172442 10.428038,5.3638494 10.374724,5.2103945 10.330524,5.2113746 10.279064,5.2633306 10.237379,5.3054146 10.20077,5.3277466 10.15071,5.3576636 10.134854,5.0876118 10.095796,4.6740317 9.9331767,4.3169078 9.8063981,4.0384927 9.6323764,3.8066503 9.3656323,3.6189468 9.0989545,3.4312899 8.8187343,3.3833453 8.6640629,3.3612063 8.6676529,3.23715 8.6786748,3.1580262 8.7238586,3.0276902 8.7763044,2.8764064 8.8832108,2.7526678 8.9001531,2.726134 8.9172141,2.699415 8.9222981,2.674246 8.8919031,2.653967 8.8614641,2.633658 8.8363981,2.645867 8.8181891,2.669432 8.8041881,2.687551 8.7134943,2.7886333 8.6413792,2.9720192 c -0.062512,0.1589654 -0.067265,0.2624994 -0.074745,0.3757855 -0.1309373,-0.00409 -0.232548,0.0014 -0.3381554,0.015465 -0.025227,-0.080677 -0.06067,-0.3116431 -0.00567,-0.5675444 0.054995,-0.2558806 0.2148775,-0.4426162 0.2706274,-0.510326 0.02094,-0.025432 0.022627,-0.055586 -0.00309,-0.074745 -0.023544,-0.017539 -0.046984,-0.011154 -0.077322,0.021135 -0.059613,0.063445 -0.230529,0.2787667 -0.2855764,0.5438323 -0.055047,0.2650655 -0.012746,0.5163867 0.00361,0.6041435 C 7.974689,3.414567 7.8912197,3.4429 7.8109421,3.4746121 7.7724487,3.3974259 7.656766,2.942907 7.78723,2.4725174 7.920934,1.990446 8.2379643,1.7152085 8.3171443,1.6492945 c 0.030417,-0.02533 0.034429,-0.040021 0.01598,-0.068043 -0.021453,-0.032487 -0.056125,-0.013005 -0.071137,-0.00257 z m 1.3629313,3.3831007 c 0.027025,0.0014 0.058543,0.00535 0.082477,0.010825 -0.00459,0.084865 -0.012212,0.1742047 -0.00155,0.2587714 0.00619,0.049063 0.033811,0.1767911 0.1159832,0.1757789 0.095835,-0.00118 0.1074539,-0.1054812 0.1103129,-0.1943362 0.00203,-0.063124 -4.045e-4,-0.103502 -0.012371,-0.188666 0.0357,0.013064 0.080362,0.037725 0.1092818,0.061858 0.01806,0.1169758 0.01703,0.2120329 0.01443,0.3268148 C 9.9687956,5.465474 9.8368643,5.5408044 9.7599751,5.5303497 9.6755113,5.5188651 9.6385187,5.4035712 9.6254346,5.2947749 9.6124819,5.1870711 9.6113561,5.0760577 9.6249191,4.9617743 Z m -0.8015727,0.039692 c 0.1240551,0.1800012 0.1333752,0.412757 0.1170142,0.5670289 -0.00557,0.052559 -0.045549,0.07328 -0.093818,0.051548 -0.1260473,-0.056751 -0.1637502,-0.063151 -0.2989789,-0.091756 -0.041582,-0.0088 -0.082027,-0.038216 -0.1046426,-0.074229 -0.053473,-0.085151 -0.08651,-0.1882261 -0.080931,-0.2788751 0.023534,-0.023535 0.058267,-0.045986 0.095364,-0.064435 0.015358,0.098228 0.029118,0.1978708 0.08093,0.2788751 0.04482,0.070074 0.1284833,0.09531 0.1933054,0.060311 0.0713,-0.038497 0.067618,-0.1272453 0.058765,-0.1829956 -0.015185,-0.095631 -0.039249,-0.1464237 -0.087116,-0.2386677 0.034006,-0.00967 0.07563,-0.019725 0.1201079,-0.026805 z M 8.3948376,5.5937632 c 0.3888141,0.04088 0.533815,0.1549663 0.7264568,0.3500025 0.047274,0.047862 0.092949,0.066369 0.1556752,0.066497 0.1330316,2.712e-4 0.1842276,0.00132 0.470634,-0.066497 C 9.752675,6.05594 9.8104513,6.1597681 9.8991549,6.2360429 9.6887587,6.3380069 9.5129551,6.3467694 9.3424356,6.3236747 9.165418,6.2996999 8.9344444,6.2206279 8.7656126,6.1154204 8.8408036,6.0058241 8.8437726,5.9624627 8.8563376,5.9056197 8.8689026,5.8487767 8.7967213,5.8278597 8.7774686,5.8819077 8.7558343,5.9426417 8.7158336,6.076348 8.5882872,6.155628 8.5011892,6.207491 8.3246607,6.212765 8.2253887,6.199959 c -0.058849,-0.00759 -0.070032,0.079713 -0.017011,0.088663 0.099247,0.016754 0.231439,0.014346 0.3701152,-0.019073 0.128819,0.2962477 0.3308964,0.7133087 0.4422826,0.8623994 0.1136902,0.1521746 0.1901664,0.20353 0.2773287,0.202584 0.097451,-0.00106 0.1686988,-0.096698 0.2025839,-0.1850577 0.06467,-0.1686343 0.1273334,-0.4186225 0.1123749,-0.7067242 0.1368209,-0.033906 0.3231775,-0.089394 0.438159,-0.159799 0.0077,0.6683481 0.01447,1.451003 0.17681,2.3908 0.196263,1.1361509 0.364766,1.7310385 0.701569,2.8114325 0.170894,0.548192 0.180017,1.259842 0.08248,1.586135 -0.128035,0.428317 -0.42901,1.191958 -1.5974752,1.370148 -0.9548516,0.145614 -1.7310187,-0.394689 -1.90831,-0.966011 -0.2897147,-0.933608 0.082387,-1.616503 0.1969137,-2.35317 C 7.8177488,10.385536 7.9052656,9.4320747 7.7779545,8.6072545 7.6224463,7.5997518 7.3533763,7.1462058 7.5150561,6.3576964 7.5422529,6.2250581 7.6666301,5.9089752 7.8465103,5.7453052 7.9931606,5.6118706 8.1192611,5.5647893 8.3948376,5.5937632 Z m 1.028013,1.3618909 c 0.025243,-0.00494 0.045501,0.00533 0.044847,0.036084 -0.00135,0.06326 -0.044124,0.1584569 -0.1036117,0.2185639 -0.029648,0.029957 -0.094291,0.045096 -0.1505204,5.155e-4 -0.07222,-0.057259 -0.1438856,-0.1536523 -0.1453656,-0.2092853 -6.29e-4,-0.023644 0.014662,-0.033417 0.042785,-0.036599 0.043279,-0.0049 0.1111746,0.027135 0.1762945,0.024743 0.06502,-0.00239 0.1032634,-0.027692 0.1355712,-0.034022 z M 9.6934779,7.7195965 C 9.639372,7.7981079 9.5599541,7.8713919 9.4548105,7.9314594 9.3495898,7.991571 9.1761622,8.0156343 9.0393329,7.953625 8.9024208,7.8915781 8.8190251,7.8147083 8.7645816,7.7613507 8.7289741,7.7264533 8.6749026,7.7720587 8.7058166,7.8051667 8.7717336,7.8756717 8.873576,7.9640958 9.005311,8.0237306 9.1370459,8.0833656 9.334926,8.0937772 9.4908939,8.0036266 9.6468616,7.9134762 9.7024301,7.8249024 9.7506962,7.75001 9.7765975,7.7097924 9.7236913,7.6757547 9.6934779,7.7195965 Z M 4.2231956,10.799079 c 0.1191851,-0.0024 0.3185516,0.03411 0.481459,0.104643 0.2748295,0.11899 0.2610255,0.176098 0.3283613,0.453623 0.028698,0.118277 0.1550709,0.167322 0.2531011,0.18248 0.098028,0.01516 0.3825643,-0.09079 0.4763043,-0.1232 0.09374,-0.03241 0.1499359,-0.0029 0.1768099,0.04382 0.026877,0.0467 0.049067,0.251198 -0.1402108,0.441767 -0.1892741,0.190566 -0.3377527,0.169706 -0.6489903,0.194336 -0.012565,0.523449 0.1989757,0.746279 0.2685655,0.925289 0.069624,0.179098 -0.024049,0.389245 -0.1829957,0.431972 -0.158972,0.04273 -0.2733527,-0.0012 -0.3953738,-0.192789 -0.1168257,-0.183408 -0.1421255,-0.547167 -0.147943,-0.886627 -9.595e-4,-0.05599 -0.0916,-0.057 -0.09124,-10e-4 0.003,0.466798 0.02993,0.676947 0.1226846,0.904153 -0.062726,0.06961 -0.1327667,0.104057 -0.2510391,0.09846 -0.089253,-0.0042 -0.2071479,-0.03943 -0.2933089,-0.207261 -0.107406,-0.20922 -0.1506175,-0.435447 -0.1025807,-0.868586 0.00512,-0.04615 -0.074643,-0.07205 -0.090725,-0.01392 -0.037772,0.136529 -0.033822,0.453423 0.00258,0.627341 -0.065917,0.0027 -0.1309779,-0.01146 -0.2098007,-0.123716 -0.090209,-0.128474 -0.1272034,-0.301485 -0.1505204,-0.50981 -0.035918,-0.320908 -0.010001,-0.54877 0.014949,-0.752602 0.0286,-0.233655 0.1238683,-0.535809 0.2329973,-0.630949 0.094486,-0.08237 0.2438702,-0.09538 0.3469164,-0.09742 z m 8.2018154,0.04639 c 0.500409,-0.0081 0.606109,0.340439 0.672702,0.545895 0.06662,0.205532 0.136575,0.618927 -0.01959,1.016528 -0.12945,0.329583 -0.299395,0.435025 -0.406199,0.385064 0.18768,-0.247315 0.239219,-0.39241 0.260834,-0.593318 0.0068,-0.0632 -0.08432,-0.07036 -0.09211,-0.01089 -0.04125,0.315002 -0.263255,0.592852 -0.391411,0.699566 -0.102839,0.08563 -0.172031,0.111247 -0.298979,0.0201 0.164544,-0.195957 0.290673,-0.473285 0.322175,-0.621155 0.01104,-0.05181 -0.0718,-0.07202 -0.08763,-0.01753 -0.07353,0.253159 -0.263901,0.542441 -0.351558,0.626309 -0.08766,0.08387 -0.191474,0.106813 -0.277845,0.08712 -0.08635,-0.01969 -0.142029,-0.08686 -0.05567,-0.277328 0.08636,-0.190472 0.352307,-0.517458 0.311351,-0.877864 -0.0033,-0.02932 -0.04616,-0.0847 -0.127839,-0.07732 -0.08167,0.0074 -0.237626,0.0826 -0.444345,-0.04485 -0.1834,-0.113074 -0.241281,-0.327183 -0.211862,-0.475273 0.02942,-0.148089 0.142573,-0.158914 0.303618,-0.05 0.170735,0.115467 0.284632,0.06407 0.326815,0.04124 -0.01017,-0.04139 -0.01779,-0.05704 0.0134,-0.125261 0.07773,-0.170017 0.438843,-0.249133 0.55414,-0.250991 z m -1.299527,4.061474 c 0.198849,0.04418 0.431154,0.194753 0.577338,0.393312 0.153586,0.208614 0.211159,0.429308 0.221142,0.67064 0.0036,0.08676 -0.03837,0.110553 -0.124231,0.123716 -0.272545,0.04178 -0.75407,0.115956 -1.541288,0.130416 -0.7872189,0.01446 -1.2322715,-0.05978 -1.6000524,-0.159799 0.4745849,-0.08516 0.9434119,-0.1816 1.4825224,-0.441767 0.563334,-0.271857 0.918951,-0.663565 0.984569,-0.716518 z m -4.8527367,0.611363 c 0.3162133,0.08401 0.6385343,0.267474 0.7448698,0.496924 0.1483588,0.320128 -0.1334372,0.593838 -0.3469186,0.77786 -0.2844391,0.245187 -0.8141247,0.443869 -1.3469514,0.51445 -0.5708152,0.07561 -1.2786306,0.03416 -1.7794398,-0.111344 -0.082672,-0.02402 -0.088822,-0.02622 -0.086601,-0.112375 0.00795,-0.308347 0.2639926,-0.811848 0.4763043,-1.057766 0.2326554,-0.269453 0.4467404,-0.485366 0.8041501,-0.558266 0.403723,-0.08226 1.0025511,-0.09083 1.5345866,0.05052 z"
     inkscape:label="Krtkus"
     transform="matrix(1.0024899,0,0,1.0024899,-0.03396722,-0.03489523)"
     sodipodi:nodetypes="cscsssssscsssccscsssssccsssscsccsscsccsscsscsssssccsssssccsccccccssscccssccssssccsssccsssccscssssscsssccsssssssssssssssssssssssssssssssssscssssscsssscsssssscsscssscsssssssssscssccsssscscssssssssss" /></svg>
